<?xml version="1.0" encoding="UTF-8"?>
<svg version="1.1" xmlns="http://www.w3.org/2000/svg" width="207" height="49">
<path d="M0 0 C5.63212192 3.40827979 9.39832803 8.24576416 11.5 14.4375 C11.91527499 18.97119548 11.82440068 23.51167935 11.8125 28.0625 C11.82861328 29.30257812 11.84472656 30.54265625 11.86132812 31.8203125 C11.86197266 33.00625 11.86261719 34.1921875 11.86328125 35.4140625 C11.86626221 36.49768066 11.86924316 37.58129883 11.87231445 38.69775391 C11.5 41.4375 11.5 41.4375 10.25537109 43.2956543 C8.02860599 44.74413557 6.69548595 44.78371784 4.05078125 44.73046875 C3.20322266 44.72080078 2.35566406 44.71113281 1.48242188 44.70117188 C0.60134766 44.67603516 -0.27972656 44.65089844 -1.1875 44.625 C-2.08017578 44.61146484 -2.97285156 44.59792969 -3.89257812 44.58398438 C-6.09566166 44.54864079 -8.29752582 44.49930493 -10.5 44.4375 C-10.60845031 41.87385517 -10.68749744 39.31483721 -10.75 36.75 C-10.80027344 35.6681543 -10.80027344 35.6681543 -10.8515625 34.56445312 C-10.92239642 30.68629591 -10.75919658 28.85485043 -8.65625 25.46875 C-6.22996244 23.18311679 -4.78098889 22.71091574 -1.5 22.4375 C-1.5 21.7775 -1.5 21.1175 -1.5 20.4375 C-2.61375 20.3446875 -2.61375 20.3446875 -3.75 20.25 C-7.37129113 19.18007307 -8.48712115 17.56864488 -10.5 14.4375 C-10.5 13.4475 -10.5 12.4575 -10.5 11.4375 C-11.16 11.4375 -11.82 11.4375 -12.5 11.4375 C-12.5928125 12.55125 -12.5928125 12.55125 -12.6875 13.6875 C-13.79565606 17.43818205 -15.18982222 18.38170538 -18.5 20.4375 C-21.29363933 20.90471394 -23.99027122 20.81864915 -26.8125 20.6875 C-27.92334961 20.66042969 -27.92334961 20.66042969 -29.05664062 20.6328125 C-30.8716571 20.58597337 -32.68600166 20.51423789 -34.5 20.4375 C-34.46632602 13.1639212 -32.5945274 8.64995628 -27.5 3.4375 C-20.15041509 -2.67537591 -8.78036173 -3.98952358 0 0 Z " fill="#0CA896" transform="translate(34.5,4.5625)"/>
<path d="M0 0 C2.56364483 -0.10845031 5.12266279 -0.18749744 7.6875 -0.25 C8.40873047 -0.28351562 9.12996094 -0.31703125 9.87304688 -0.3515625 C13.77954343 -0.42291404 15.56934334 -0.27534719 18.95703125 1.890625 C22.6367091 5.68990997 22.11890612 9.10051637 22.0625 14.125 C22.05798828 14.87910156 22.05347656 15.63320313 22.04882812 16.41015625 C22.03703499 18.27347127 22.01909942 20.13674555 22 22 C18.89601022 22.08710289 15.79233452 22.14042309 12.6875 22.1875 C11.80642578 22.21263672 10.92535156 22.23777344 10.01757812 22.26367188 C8.74624023 22.27817383 8.74624023 22.27817383 7.44921875 22.29296875 C6.66893311 22.3086792 5.88864746 22.32438965 5.0847168 22.34057617 C3 22 3 22 1.24023438 20.75976562 C-0.33227736 18.52853244 -0.34758074 17.26317684 -0.29296875 14.55078125 C-0.28330078 13.70322266 -0.27363281 12.85566406 -0.26367188 11.98242188 C-0.23853516 11.10134766 -0.21339844 10.22027344 -0.1875 9.3125 C-0.17396484 8.41982422 -0.16042969 7.52714844 -0.14648438 6.60742188 C-0.11114079 4.40433834 -0.06180493 2.20247418 0 0 Z " fill="#08AA91" transform="translate(0,27)"/>
<path d="M0 0 C3.3125 -0.1875 3.3125 -0.1875 7 0 C7.45375 0.495 7.9075 0.99 8.375 1.5 C10.74138161 3.68435226 12.53629044 3.29871916 15.6875 3.1875 C17.17830078 3.14689453 17.17830078 3.14689453 18.69921875 3.10546875 C19.45847656 3.07066406 20.21773437 3.03585938 21 3 C21.33 2.01 21.66 1.02 22 0 C22.66 0 23.32 0 24 0 C24 0.99 24 1.98 24 3 C25.32 3 26.64 3 28 3 C28 2.01 28 1.02 28 0 C28.99 0 29.98 0 31 0 C31 0.99 31 1.98 31 3 C39.91 3 48.82 3 58 3 C58 2.01 58 1.02 58 0 C58.99 0 59.98 0 61 0 C61 2.97 61 5.94 61 9 C56.25 10.125 56.25 10.125 54 9 C54 7.68 54 6.36 54 5 C53.34 5 52.68 5 52 5 C52 6.32 52 7.64 52 9 C50.741875 9.185625 49.48375 9.37125 48.1875 9.5625 C47.12595703 9.71912109 47.12595703 9.71912109 46.04296875 9.87890625 C44 10 44 10 41 9 C39.66431979 9.32380126 38.33076989 9.65657551 37 10 C36.34 9.67 35.68 9.34 35 9 C34.40316406 9.1546875 33.80632812 9.309375 33.19140625 9.46875 C30.57755888 10.10240997 28.59600403 9.85286328 25.9375 9.5 C22.67702293 9.06853837 21.18007569 8.93997477 18 10 C11.52066116 10.34710744 11.52066116 10.34710744 8 8 C7.67 8.33 7.34 8.66 7 9 C4.66702567 9.04092937 2.33294775 9.04241723 0 9 C0 6.03 0 3.06 0 0 Z M3 2 C3 3.65 3 5.3 3 7 C3.99 6.67 4.98 6.34 6 6 C6 5.01 6 4.02 6 3 C5.01 2.67 4.02 2.34 3 2 Z M12 5 C13 7 13 7 13 7 Z M31 5 C31 5.66 31 6.32 31 7 C31.66 6.67 32.32 6.34 33 6 C32.34 5.67 31.68 5.34 31 5 Z M38 5 C39 7 39 7 39 7 Z M45 5 C46 7 46 7 46 7 Z M57 5 C56.67 5.66 56.34 6.32 56 7 C56.66 7 57.32 7 58 7 C57.67 6.34 57.34 5.68 57 5 Z " fill="#5E5E5E" transform="translate(58,37)"/>
<path d="M0 0 C12.37131913 -0.49485277 12.37131913 -0.49485277 15.3671875 1.86328125 C17.28592208 4.37416119 17.8462136 5.84737873 18 9 C17.21350125 12.00299522 16.38340865 13.61659135 14.1875 15.8125 C11.60003118 17.21712593 9.90193042 17.24182753 7 17 C6.67 18.98 6.34 20.96 6 23 C4.02 23 2.04 23 0 23 C0 15.41 0 7.82 0 0 Z M7 5 C6.34 6.32 5.68 7.64 5 9 C5.99 10.485 5.99 10.485 7 12 C8.32 11.67 9.64 11.34 11 11 C11.33 9.35 11.66 7.7 12 6 C10.35 5.67 8.7 5.34 7 5 Z " fill="#05454C" transform="translate(159,16)"/>
<path d="M0 0 C10.9947644 -0.48328635 10.9947644 -0.48328635 15.25 1.5625 C17.67547804 4.94084442 17.65373541 6.932313 17 11 C15.5 13.4375 15.5 13.4375 13 15 C10.24154167 15.32111824 7.79456032 15.18630402 5 15 C5 17.64 5 20.28 5 23 C3.35 23 1.7 23 0 23 C0 15.41 0 7.82 0 0 Z M5 5 C5 6.98 5 8.96 5 11 C6.98 10.67 8.96 10.34 11 10 C11.59070014 8.05396726 11.59070014 8.05396726 12 6 C10.87465895 4.64381501 10.87465895 4.64381501 7.9375 4.9375 C6.968125 4.958125 5.99875 4.97875 5 5 Z " fill="#065048" transform="translate(59,9)"/>
<path d="M0 0 C2.375 1.0625 2.375 1.0625 4 3 C4.75 6.6875 4.75 6.6875 5 10 C3.02 10.33 1.04 10.66 -1 11 C0.32 11.33 1.64 11.66 3 12 C3 12.99 3 13.98 3 15 C-0.48804095 17.32536063 -1.90140754 17.33457898 -6 17 C-9.34265205 15.79293121 -9.94704566 15.07943151 -12 12 C-12.56551375 7.63746537 -12.49322651 5.70247412 -9.9375 2.0625 C-6.27096589 -0.51187502 -4.39593437 -0.63940864 0 0 Z M-5 4 C-5.33 4.66 -5.66 5.32 -6 6 C-4.35 6 -2.7 6 -1 6 C-1.33 5.34 -1.66 4.68 -2 4 C-2.99 4 -3.98 4 -5 4 Z " fill="#05494B" transform="translate(102,16)"/>
<path d="M0 0 C2.5 1.4375 2.5 1.4375 4 4 C4.48207192 7.06974532 4.62382717 9.94830491 4 13 C2.49878542 15.02297818 1.50960606 15.84408357 -0.90234375 16.58203125 C-3.97635116 16.93014341 -6.37605096 17.18061683 -9.375 16.3125 C-12.3225542 13.93178314 -12.88709832 11.75805412 -13.4375 8.0625 C-13 5 -13 5 -11 2.125 C-6.85436985 -0.81148802 -5.00671711 -0.7152453 0 0 Z M-6 5 C-6.66 6.32 -7.32 7.64 -8 9 C-7.01 10.485 -7.01 10.485 -6 12 C-4.68 11.67 -3.36 11.34 -2 11 C-1.67 9.35 -1.34 7.7 -1 6 C-2.65 5.67 -4.3 5.34 -6 5 Z " fill="#064B49" transform="translate(202,16)"/>
<path d="M0 0 C1.97265625 0.265625 1.97265625 0.265625 4.97265625 2.265625 C4.60140625 3.02875 4.23015625 3.791875 3.84765625 4.578125 C3.41453125 5.9084375 3.41453125 5.9084375 2.97265625 7.265625 C3.96265625 8.750625 3.96265625 8.750625 4.97265625 10.265625 C4.78515625 12.828125 4.78515625 12.828125 3.97265625 15.265625 C0.4846153 17.59098563 -0.92875129 17.60020398 -5.02734375 17.265625 C-7.40234375 16.265625 -7.40234375 16.265625 -9.02734375 15.265625 C-8.69734375 13.945625 -8.36734375 12.625625 -8.02734375 11.265625 C-6.04734375 11.265625 -4.06734375 11.265625 -2.02734375 11.265625 C-4.00734375 10.275625 -5.98734375 9.285625 -8.02734375 8.265625 C-8.15234375 5.390625 -8.15234375 5.390625 -8.02734375 2.265625 C-5.42029477 -0.34142398 -3.55396134 0.02657167 0 0 Z M-3.02734375 4.265625 C-2.69734375 4.925625 -2.36734375 5.585625 -2.02734375 6.265625 C-1.03734375 5.935625 -0.04734375 5.605625 0.97265625 5.265625 C-0.34734375 4.935625 -1.66734375 4.605625 -3.02734375 4.265625 Z " fill="#05454B" transform="translate(116.02734375,15.734375)"/>
<path d="M0 0 C0.99 0.66 1.98 1.32 3 2 C2.34 3.32 1.68 4.64 1 6 C-1.31 6 -3.62 6 -6 6 C-5.67 7.65 -5.34 9.3 -5 11 C-3.576875 10.9071875 -3.576875 10.9071875 -2.125 10.8125 C-1.09375 10.874375 -0.0625 10.93625 1 11 C1.99 12.485 1.99 12.485 3 14 C1.14675781 15.93046061 -0.22098366 16.96708382 -2.94140625 17.08203125 C-5.99973602 16.78352024 -8.334974 16.42904904 -10.9375 14.75 C-12.34899329 12.42518752 -12.80566 10.72075998 -13 8 C-10.90709179 0.67482125 -7.3437132 -1.14005225 0 0 Z " fill="#05484A" transform="translate(134,16)"/>
<path d="M0 0 C1.65 0 3.3 0 5 0 C5 1.98 5 3.96 5 6 C6.32 6 7.64 6 9 6 C9 7.65 9 9.3 9 11 C7.68 11 6.36 11 5 11 C5 14.63 5 18.26 5 22 C3.35 22 1.7 22 0 22 C0 18.37 0 14.74 0 11 C-0.99 11 -1.98 11 -3 11 C-3 9.35 -3 7.7 -3 6 C-2.01 6 -1.02 6 0 6 C0 4.02 0 2.04 0 0 Z " fill="#065048" transform="translate(180,10)"/>
<path d="M0 0 C3.96 0 7.92 0 12 0 C12 1.32 12 2.64 12 4 C11.67 4.33 11.34 4.66 11 5 C9.35 5 7.7 5 6 5 C5.67 8.63 5.34 12.26 5 16 C3.35 16 1.7 16 0 16 C0 10.72 0 5.44 0 0 Z " fill="#064F48" transform="translate(138,16)"/>
<path d="M0 0 C3.96 0 7.92 0 12 0 C12 1.32 12 2.64 12 4 C10.02 4.66 8.04 5.32 6 6 C5.67 9.3 5.34 12.6 5 16 C3.35 16 1.7 16 0 16 C0 10.72 0 5.44 0 0 Z " fill="#064E49" transform="translate(78,16)"/>
<path d="M0 0 C0.66 0 1.32 0 2 0 C2 2.97 2 5.94 2 9 C-6 10.38461538 -6 10.38461538 -9 9 C-9.33 8.01 -9.66 7.02 -10 6 C-10.33 6.99 -10.66 7.98 -11 9 C-11.66 9 -12.32 9 -13 9 C-13 7.02 -13 5.04 -13 3 C-9.04 3 -5.08 3 -1 3 C-0.67 2.01 -0.34 1.02 0 0 Z " fill="#5E5E5E" transform="translate(149,37)"/>
<path d="M0 0 C1.65 0 3.3 0 5 0 C5 5.28 5 10.56 5 16 C3.35 16 1.7 16 0 16 C0 10.72 0 5.44 0 0 Z " fill="#065446" transform="translate(152,16)"/>
<path d="M0 0 C2.375 -0.125 2.375 -0.125 5 0 C5.66 0.66 6.32 1.32 7 2 C8.98821313 2.39764263 10.98944339 2.73775349 13 3 C13 4.98 13 6.96 13 9 C11.35 9.33 9.7 9.66 8 10 C7.34 8.68 6.68 7.36 6 6 C4.68 6 3.36 6 2 6 C2 6.99 2 7.98 2 9 C1.34 9 0.68 9 0 9 C0 6.03 0 3.06 0 0 Z M2 2 C2 2.66 2 3.32 2 4 C2.66 3.67 3.32 3.34 4 3 C3.34 2.67 2.68 2.34 2 2 Z M9 5 C9 5.66 9 6.32 9 7 C9.66 6.67 10.32 6.34 11 6 C10.34 5.67 9.68 5.34 9 5 Z " fill="#5E5E5E" transform="translate(122,37)"/>
<path d="M0 0 C1.65 0.33 3.3 0.66 5 1 C5 2.32 5 3.64 5 5 C4.01 5.33 3.02 5.66 2 6 C1.01 5.34 0.02 4.68 -1 4 C-0.67 2.68 -0.34 1.36 0 0 Z " fill="#05414F" transform="translate(152,9)"/>
<path d="M0 0 C1.65 0 3.3 0 5 0 C5 1.65 5 3.3 5 5 C3.35 4.67 1.7 4.34 0 4 C0 2.68 0 1.36 0 0 Z " fill="#328DCA" transform="translate(41,3)"/>
</svg>
